HIERARCHY
ROOT root     
{
	OFFSET 0.0000 0.0000 0.0000
	CHANNELS 6 Xposition Yposition Zposition Zrotation Yrotation Xrotation
	JOINT pelvis   
	{
		OFFSET 0.0000 0.0000 0.0000
		CHANNELS 3 Zrotation Yrotation Xrotation
		JOINT thorax   
		{
			OFFSET 0.0000 23.0750 -5.0000
			CHANNELS 3 Zrotation Yrotation Xrotation
			JOINT rclavicle
			{
				OFFSET 0.0000 28.0009 0.0000
				CHANNELS 3 Zrotation Yrotation Xrotation
				JOINT rhumerus 
				{
					OFFSET -18.5725 5.5939 0.0000
					CHANNELS 3 Zrotation Yrotation Xrotation
					JOINT rradius  
					{
						OFFSET -24.8459 0.0000 0.0000
						CHANNELS 3 Zrotation Yrotation Xrotation
						JOINT rhand    
						{
							OFFSET -24.5477 0.0000 0.0000
							CHANNELS 3 Zrotation Yrotation Xrotation
							End Site
							{
								OFFSET -8.1826 0.0000 0.0000
							}
						}
					}
				}
			}
			JOINT lclavicle
			{
				OFFSET 0.0000 28.0009 0.0000
				CHANNELS 3 Zrotation Yrotation Xrotation
				JOINT lhumerus 
				{
					OFFSET 18.5725 5.5939 0.0000
					CHANNELS 3 Zrotation Yrotation Xrotation
					JOINT lradius  
					{
						OFFSET 24.8459 0.0000 0.0000
						CHANNELS 3 Zrotation Yrotation Xrotation
						JOINT lhand    
						{
							OFFSET 24.5477 0.0000 0.0000
							CHANNELS 3 Zrotation Yrotation Xrotation
							End Site
							{
								OFFSET 8.1826 0.0000 0.0000
							}
						}
					}
				}
			}
			JOINT head     
			{
				OFFSET 0.0000 35.2030 0.0000
				CHANNELS 3 Zrotation Yrotation Xrotation
				End Site
				{
					OFFSET 0.0000 11.7343 0.0000
				}
			}
		}
		JOINT rfemur   
		{
			OFFSET -8.2817 0.0000 0.0000
			CHANNELS 3 Zrotation Yrotation Xrotation
			JOINT rtibia   
			{
				OFFSET 0.0000 -43.3627 0.0000
				CHANNELS 3 Zrotation Yrotation Xrotation
				JOINT rfoot    
				{
					OFFSET 0.0000 -38.2947 0.0000
					CHANNELS 3 Zrotation Yrotation Xrotation
					JOINT rtoes    
					{
						OFFSET 0.0000 0.0000 16.6054
						CHANNELS 3 Zrotation Yrotation Xrotation
						End Site
						{
							OFFSET 0.0000 0.0000 5.5351
						}
					}
				}
			}
		}
		JOINT lfemur   
		{
			OFFSET 8.2817 0.0000 0.0000
			CHANNELS 3 Zrotation Yrotation Xrotation
			JOINT ltibia   
			{
				OFFSET 0.0000 -43.3627 0.0000
				CHANNELS 3 Zrotation Yrotation Xrotation
				JOINT lfoot    
				{
					OFFSET 0.0000 -38.2947 0.0000
					CHANNELS 3 Zrotation Yrotation Xrotation
					JOINT ltoes    
					{
						OFFSET 0.0000 0.0000 16.6054
						CHANNELS 3 Zrotation Yrotation Xrotation
						End Site
						{
							OFFSET 0.0000 0.0000 5.5351
						}
					}
				}
			}
		}
	}
}
MOTION
Frames: 15
Frame Time: .0333333
-3.7779 80.763 -1.9695 84.6689 86.8252 123.07 0 -0 0 12.2103 -3.50831 22.8827 16.4265 -8.43784 3.85177e-05 50.7952 3.04979 5.45924 -0 77.4635 -0 -7.24724 1.82655 -0.1157 -10.6459 12.9508 -3.5842e-05 -60.343 21.9828 23.202 9.39838e-07 -67.8601 -6.3226e-07 -2.326 5.71564 -0.116099 5.84196 -7.83166 -12.0373 7.25518 -5.39972 -64.5206 -0 -0 48.851 2.87575e-05 -11.8305 -10.921 -177.728 8.75938e-07 -1.63755 -4.53642 4.27574 -52.7518 -0 -0 68.3083 4.75334e-05 20.8334 -9.6911 -3.66528 -7.85422e-06 -16.841 
-3.0766 81.028 -1.8955 82.8211 86.7527 121.369 0 -0 0 11.9467 -3.21878 23.0679 16.1206 -8.38926 -1.85329e-08 50.4256 3.41903 5.48335 -1.12241e-06 77.9318 -9.07784e-07 -7.24705 1.61622 -0.102402 -10.5936 12.9711 -2.98716e-05 -60.3287 22.1649 23.4648 0 -68.7721 0 -2.59015 5.43124 -0.122901 5.84568 -7.87222 -11.8609 7.18202 -5.42616 -63.785 -0 -0 48.123 -9.85042e-06 -11.7607 -11.0046 -177.724 7.93283e-07 -1.56739 -4.55293 3.72683 -54.4715 -0 -0 67.8787 -7.91917e-05 20.7919 -9.95571 -3.7558 -1.04717e-05 -16.4578 
-2.3599 81.283 -1.8239 81.2655 86.6696 119.925 0 -0 0 11.6817 -2.92991 23.2381 15.8288 -8.34997 5.41192e-05 50.0267 3.75843 5.48161 -2.80868e-06 78.4064 -2.96573e-06 -7.2871 1.40322 -0.0894035 -10.5361 12.9867 8.85858e-05 -60.3288 22.3251 23.6989 0 -69.6617 0 -2.86677 5.14138 -0.128703 5.85876 -7.89655 -11.7017 7.11696 -5.48135 -63.0208 -0 -0 47.4152 -4.51681e-05 -11.6746 -11.0731 -177.727 -1.30696e-06 -1.33595 -4.54805 3.18982 -56.1123 -0 -0 67.2971 -1.63602e-05 20.6696 -10.1234 -3.7938 -1.51513e-05 -16.2147 
-1.6261 81.527 -1.7549 79.8377 86.5929 118.573 0 -0 0 11.4129 -2.64058 23.3937 15.5539 -8.3199 -4.86408e-06 49.6035 4.06922 5.45953 -0 78.8957 -0 -7.36639 1.19125 -0.0767035 -10.4767 13.0011 -2.65509e-05 -60.3362 22.4677 23.9094 1.04554e-06 -70.5258 -7.39268e-07 -3.14544 4.85397 -0.133399 5.8765 -7.90427 -11.5611 7.05605 -5.55814 -62.2267 -0 -0 46.7325 5.5245e-05 -11.5768 -11.1271 -177.736 5.79719e-08 -0.936708 -4.52807 2.67103 -57.6616 -0 -0 66.5598 -3.08933e-05 20.4721 -10.2002 -3.78257 -1.97428e-05 -16.1208 
-0.8732 81.758 -1.6887 78.4371 86.5308 117.212 0 -0 0 11.1396 -2.34998 23.5347 15.2917 -8.29889 1.17916e-05 49.1624 4.35276 5.42205 -0 79.3932 -0 -7.48317 0.982594 -0.0643005 -10.4184 13.0167 -1.60203e-05 -60.3471 22.595 24.1003 0 -71.3637 0 -3.41445 4.57689 -0.136502 5.89297 -7.8958 -11.4399 6.99589 -5.64908 -61.4029 -0 -0 46.0841 2.08505e-06 -11.4668 -11.1704 -177.75 -3.54088e-08 -0.387603 -4.49812 2.17603 -59.1128 -0 -0 65.6693 -7.33365e-06 20.208 -10.1979 -3.7288 9.38138e-06 -16.1798 
-0.0995 81.976 -1.6253 76.9953 86.4641 115.769 0 -0 0 10.8614 -2.05891 23.6639 15.0421 -8.28679 -2.90515e-05 48.712 4.61101 5.37537 -0 79.9001 -0 -7.63303 0.778498 -0.0519 -10.3646 13.0369 2.46778e-06 -60.3567 22.7109 24.2778 -1.16165e-06 -72.1753 1.59375e-06 -3.65989 4.31731 -0.138001 5.90148 -7.87139 -11.337 6.93538 -5.7477 -60.5476 -0 -0 45.471 -2.21529e-06 -11.348 -11.2112 2.23444 -2.26306e-07 -0.253695 -4.46267 1.71065 -60.4559 -0 -0 64.6282 1.24501e-05 19.8881 -10.1374 -3.64323 -1.84596e-05 -16.338 
0.6959 82.178 -1.564 75.434 86.404 114.168 0 -0 0 10.5776 -1.76782 23.7797 14.7975 -8.28193 -2.41757e-05 48.2644 4.84396 5.3244 -0 80.4257 -0 -7.81141 0.582302 -0.0398011 -10.3155 13.062 -7.99324e-06 -60.3602 22.8234 24.4428 -8.65816e-07 -72.9558 1.17104e-06 -3.87083 4.08397 -0.138099 5.89781 -7.83244 -11.2511 6.87188 -5.84498 -59.6576 -0 -0 44.8952 8.64751e-06 -11.2254 -11.2502 2.21737 5.36529e-07 -0.998513 -4.42371 1.27855 -61.691 -0 -0 63.444 0.000114723 19.5207 -10.0202 -3.53003 -2.15008e-06 -16.7463 
1.5149 82.364 -1.5049 73.702 86.3582 112.357 0 -0 0 10.29 -1.4802 23.8812 14.5602 -8.28539 4.02777e-05 47.8216 5.05616 5.2765 -0 80.9581 -0 -8.01115 0.391898 -0.0274001 -10.2744 13.0986 1.8547e-05 -60.3557 22.9345 24.598 -9.12397e-07 -73.7046 1.21733e-06 -4.03439 3.8791 -0.136699 5.87582 -7.78033 -11.1786 6.80885 -5.94127 -58.7315 -0 -0 44.3578 -4.61956e-06 -11.097 -11.3024 2.20148 7.00842e-07 -1.71641 -4.3852 0.883798 -62.8139 -0 -0 62.1237 3.95084e-05 19.1173 -9.88283 -3.40471 1.74483e-05 -17.1747 
2.3574 82.534 -1.4467 71.8271 86.3127 110.362 0 -0 0 9.99896 -1.19889 23.9672 14.3263 -8.29738 2.26971e-07 47.3943 5.24928 5.23825 -2.66943e-06 81.5134 -3.09747e-06 -8.22591 0.209904 -0.0151006 -10.2384 13.148 -4.69921e-05 -60.3398 23.0522 24.7428 -1.35941e-06 -74.4229 1.79026e-06 -4.14399 3.70892 -0.134204 5.83486 -7.71745 -11.1173 6.74571 -6.03079 -57.7694 -0 -0 43.8571 -1.6493e-06 -10.9687 -11.367 2.18762 -1.20676e-07 -2.43491 -4.3489 0.528806 -63.8295 -0 -0 60.6761 2.25396e-05 18.6836 -9.72037 -3.26767 1.60337e-05 -17.7711 
3.2237 82.685 -1.3887 69.8645 86.2746 108.246 0 -0 0 9.70552 -0.927867 24.0317 14.094 -8.31918 7.97555e-06 46.9893 5.42656 5.2176 -0 82.0716 -0 -8.44765 0.0371993 -0.00269999 -10.2058 13.2113 -8.60123e-05 -60.3129 23.1826 24.881 1.31684e-06 -75.1051 -1.0124e-06 -4.19441 3.57572 -0.131002 5.77478 -7.64609 -11.0648 6.68425 -6.11372 -56.771 -0 -0 43.3944 5.63267e-06 -10.8429 -11.4472 2.17692 1.26509e-06 -3.11486 -4.31914 0.215882 -64.7452 -0 -0 59.1158 2.5604e-05 18.2209 -9.54151 -3.12345 -1.13438e-05 -18.4556 
4.1139 82.819 -1.3309 67.8255 86.2565 106.018 0 -0 0 9.4098 -0.671582 24.0743 13.8663 -8.3521 -1.5659e-05 46.6031 5.59073 5.22014 -4.46802e-06 82.6444 -4.62459e-06 -8.66853 -0.127504 0.00970035 -10.1743 13.2886 -8.20586e-05 -60.2736 23.3319 25.0067 -1.0657e-06 -75.7614 1.36991e-06 -4.185 3.47674 -0.127106 5.6976 -7.56984 -11.018 6.62664 -6.19469 -55.7409 -0 -0 42.9741 -2.18555e-05 -10.7194 -11.5451 2.16982 1.47915e-07 -3.73049 -4.30282 -0.0539962 -65.5671 -0 -0 57.4536 -2.11525e-05 17.7331 -9.35503 -2.97568 4.97557e-06 -19.1276 
5.0274 82.933 -1.2725 65.8101 86.2271 103.785 0 -0 0 9.11194 -0.432929 24.0873 13.642 -8.39797 1.68146e-05 46.2379 5.74411 5.25281 -0 83.2275 -0 -8.88053 -0.282899 0.0219993 -10.1402 13.3797 -1.21725e-05 -60.2253 23.5067 25.1213 1.00781e-06 -76.3835 -7.92844e-07 -4.12034 3.41049 -0.122701 5.60794 -7.49179 -10.9772 6.57365 -6.27643 -54.6873 -0 -0 42.5973 3.61388e-05 -10.6 -11.6584 2.16569 4.73859e-07 -4.30487 -4.308 -0.279933 -66.3018 -0 -0 55.6981 -1.98525e-05 17.2211 -9.15008 -2.82188 5.0512e-06 -19.8052 
5.9638 83.03 -1.2139 63.8469 86.2072 101.578 0 -0 0 8.81133 -0.214668 24.0706 13.4251 -8.45736 1.69385e-05 45.8904 5.88713 5.31884 -2.95845e-06 83.8377 -2.65616e-06 -9.07611 -0.428798 0.0339994 -10.1002 13.4836 4.93748e-06 -60.1681 23.7148 25.2185 1.04868e-06 -76.9818 -8.33861e-07 -4.00832 3.37064 -0.117998 5.51093 -7.41603 -10.9432 6.52562 -6.36539 -53.6152 -0 -0 42.275 -3.72958e-05 -10.4825 -11.779 2.16304 -3.00349e-06 -4.87222 -4.34609 -0.461407 -66.9573 -0 -0 53.858 -4.42625e-05 16.6873 -8.9225 -2.66188 1.48809e-05 -20.4239 
6.9224 83.107 -1.1548 61.978 86.2039 99.4394 0 -0 0 8.50759 -0.0173721 24.0223 13.2139 -8.53355 5.02932e-06 45.5612 6.02303 5.42381 -3.2706e-06 84.4472 -2.96836e-06 -9.24702 -0.5643 0.045601 -10.0516 13.6002 1.18368e-05 -60.1013 23.957 25.3003 0 -77.548 0 -3.86175 3.35346 -0.113101 5.41303 -7.34541 -10.9206 6.4817 -6.46361 -52.5348 -0 -0 42.0135 2.62289e-05 -10.3672 -11.8957 2.15958 -1.67036e-06 -5.53737 -4.42788 -0.596707 -67.5382 -0 -0 51.943 -1.4105e-05 16.1326 -8.65341 -2.4919 -3.96166e-06 -21.066 
7.9032 83.167 -1.0959 60.202 86.1956 97.3737 0 -0 0 8.19988 0.159545 23.9431 13.0112 -8.62582 -3.07596e-05 45.2439 6.1512 5.56797 -6.29115e-06 85.0917 -6.53974e-06 -9.3855 -0.688899 0.0565999 -9.99362 13.727 1.86072e-05 -60.0236 24.2404 25.3645 0 -78.096 0 -3.69366 3.35076 -0.108101 5.3188 -7.28328 -10.9131 6.44153 -6.57824 -51.451 -0 -0 41.821 1.92309e-05 -10.2476 -11.9987 2.15232 5.94272e-07 -6.33568 -4.56704 -0.68522 -68.0452 -0 -0 49.9534 2.81378e-05 15.5645 -8.33761 -2.31293 -4.69447e-06 -21.6943 
